# xmcd
#
# Track frame offsets:
#	150
#	14517
#	29940
#	41224
#	55522
#	69184
#	81912
#	96884
#	112247
#	129781
#	145369
#	158578
#
# Disc length: 2310 seconds
#
# Revision: 0
# Processed by: cddbd v1.4PL0 Copyright (c) Steve Scherf et al.
# Submitted via: dBpowerAMP V4.0
#
DISCID=a309040c
DTITLE=Bill Doggett Group - Blues Mood
DYEAR=1900
DGENRE=Blues
TTITLE0=Under A Blanket Of Blue
TTITLE1=Blue And Sentimental
TTITLE2=Blue Champagne
TTITLE3=Blue Prelude
TTITLE4=In The Blue Of The Evening
TTITLE5=Blue Velvet
TTITLE6=Blue Skies
TTITLE7=Blue Moon
TTITLE8=Am I Blue
TTITLE9=Blue Lou
TTITLE10=Blue Room
TTITLE11=My Blue Heaven
EXTD=CEG 035
EXTT0=
EXTT1=
EXTT2=
EXTT3=
EXTT4=
EXTT5=
EXTT6=
EXTT7=
EXTT8=
EXTT9=
EXTT10=
EXTT11=
PLAYORDER=
